<?xml version="1.0" standalone="no"?>
<!DOCTYPE svg PUBLIC "-//W3C//DTD SVG 20010904//EN"
 "http://www.w3.org/TR/2001/REC-SVG-20010904/DTD/svg10.dtd">
<svg version="1.0" xmlns="http://www.w3.org/2000/svg"
 width="500.000000pt" height="500.000000pt" viewBox="0 0 500.000000 500.000000"
 preserveAspectRatio="xMidYMid meet">
<metadata>
Created by potrace 1.14, written by Peter Selinger 2001-2017
</metadata>
<g transform="translate(0.000000,500.000000) scale(0.100000,-0.100000)"
fill="#000000" stroke="none">
<path d="M945 4849 c-385 -57 -687 -357 -744 -739 -14 -90 -19 -3136 -6 -3149
6 -5 274 -11 665 -14 394 -3 689 -10 740 -16 129 -18 265 -48 365 -82 185 -64
276 -131 316 -234 32 -82 90 -139 165 -161 65 -19 108 -14 168 16 63 33 85 58
127 145 22 45 54 94 74 111 118 105 424 194 732 214 82 5 406 10 721 10 l572
0 -2 1583 -3 1582 -27 96 c-83 302 -311 533 -614 621 l-79 23 -1555 1 c-855 1
-1582 -2 -1615 -7z"/>
<path d="M73 801 c-47 -52 -59 -102 -36 -148 37 -74 49 -78 280 -81 l207 -4
50 -43 c84 -71 241 -141 335 -149 24 -2 46 -7 50 -12 8 -12 34 -11 43 1 5 6 8
5 8 -2 0 -17 27 -17 33 0 4 10 6 9 6 0 1 -7 6 -13 12 -13 5 0 7 4 4 10 -3 5
-1 10 4 10 6 0 11 -4 11 -9 0 -6 17 -11 38 -13 30 -2 36 -7 34 -22 -2 -11 1
-15 8 -11 6 4 9 14 6 22 -5 11 4 14 44 12 27 -2 47 -6 44 -11 -7 -11 3 -10 28
3 15 8 19 8 14 0 -4 -6 0 -11 9 -11 9 0 14 -4 11 -9 -4 -5 -17 -8 -31 -6 -21
2 -23 0 -13 -12 8 -10 13 -11 18 -3 9 15 20 13 42 -7 11 -10 18 -12 18 -5 0 7
-4 12 -10 12 -5 0 -10 7 -10 15 0 19 14 19 34 -1 9 -8 16 -11 16 -5 0 17 41
24 58 8 9 -7 24 -18 32 -22 12 -7 13 -6 3 7 -7 8 -10 18 -6 22 4 4 -1 4 -12 0
-17 -6 -18 -5 -7 7 11 12 17 9 38 -19 14 -17 30 -32 36 -32 7 0 6 5 -1 14 -20
24 6 29 29 6 11 -11 20 -17 20 -12 0 4 11 12 25 18 22 11 24 10 15 -6 -13 -25
-13 -27 5 -27 9 0 14 6 11 14 -6 14 16 18 28 5 4 -4 17 -7 29 -8 12 0 32 -4
45 -8 18 -6 24 -3 31 16 l10 23 0 -24 c1 -16 5 -21 16 -17 8 3 15 0 15 -6 0
-9 3 -9 11 -1 9 9 18 8 35 -4 13 -8 28 -12 34 -8 5 3 10 3 10 -2 0 -4 16 -8
35 -9 41 -1 48 15 8 17 -28 2 -28 2 -3 6 14 3 29 10 33 17 5 7 7 3 5 -9 -2
-15 3 -21 24 -23 19 -2 25 -7 21 -18 -4 -11 0 -15 13 -14 10 1 29 -1 42 -5 19
-6 20 -10 10 -23 -11 -13 -11 -14 0 -8 7 4 20 2 29 -6 14 -11 16 -11 8 1 -6
10 -4 12 4 7 7 -5 10 -14 7 -21 -2 -7 3 -12 12 -11 12 1 16 -5 14 -19 -2 -15
-1 -17 6 -6 6 7 15 10 22 6 9 -6 9 -10 -1 -17 -10 -7 -9 -8 6 -4 20 5 48 -5
46 -18 -3 -18 1 -24 25 -35 16 -7 46 -10 73 -6 33 4 40 2 26 -4 -19 -9 -18
-10 5 -11 18 -2 20 -4 8 -7 -10 -2 -18 -9 -18 -14 0 -6 8 -5 20 1 25 13 99 2
78 -11 -8 -6 -2 -8 20 -7 19 1 36 7 39 12 4 5 -3 7 -15 4 -12 -4 -22 -2 -22 2
0 5 -19 13 -42 19 l-43 11 40 -7 c22 -4 63 -7 92 -7 43 0 50 -2 41 -13 -6 -8
-17 -12 -25 -9 -7 3 -13 1 -13 -3 0 -13 102 -10 119 3 10 7 13 8 8 0 -3 -6 1
-11 9 -11 8 0 13 6 10 14 -8 19 4 16 20 -5 8 -10 13 -12 14 -4 0 15 30 16 30
1 0 -6 7 -3 16 5 8 9 26 16 40 16 13 0 24 4 24 10 0 5 -8 7 -17 3 -17 -5 -17
-5 -1 12 14 15 20 16 32 5 11 -8 16 -9 16 -1 0 6 -4 11 -10 11 -5 0 -10 5 -10
11 0 6 7 8 16 5 11 -4 15 -2 11 8 -4 9 0 12 12 9 22 -6 38 27 19 39 -7 4 -8 8
-3 8 15 0 31 -13 38 -30 4 -11 6 -10 6 5 1 16 3 17 10 6 8 -12 11 -9 16 11 8
29 -1 52 -16 43 -16 -10 -10 2 9 16 9 7 14 10 10 5 -3 -4 2 -16 13 -27 23 -23
25 -23 33 -3 4 10 2 13 -7 8 -7 -5 -6 -1 3 10 13 17 14 17 20 0 6 -16 8 -15
22 5 16 23 36 13 22 -12 -6 -10 35 22 56 43 3 3 15 5 28 4 15 -1 21 3 18 11
-3 9 7 11 37 8 31 -3 38 -1 27 6 -9 7 -10 11 -3 11 6 0 15 -5 18 -10 4 -6 11
-8 16 -4 5 3 7 9 4 14 -9 15 12 20 25 5 11 -13 44 -10 36 4 -3 4 4 8 15 8 10
1 19 -2 19 -8 0 -5 5 -9 11 -9 5 0 8 3 6 8 -3 4 1 12 8 19 10 10 14 9 19 -4 5
-11 10 -12 19 -5 8 7 18 7 27 2 10 -6 20 -4 32 7 20 17 135 26 144 11 8 -12
34 10 34 28 0 12 5 11 25 -2 23 -15 30 -13 26 8 0 5 6 8 14 8 8 0 14 -3 14 -7
-3 -21 2 -33 12 -28 6 4 8 13 5 21 -3 8 1 14 9 14 8 0 15 -7 15 -15 0 -8 7
-15 16 -15 14 0 14 3 4 15 -11 13 -8 15 16 16 16 0 37 2 47 4 9 2 14 -1 11 -7
-9 -14 29 -5 46 11 10 10 15 10 18 2 2 -6 8 -9 13 -5 5 3 9 -2 9 -10 0 -9 4
-16 10 -16 5 0 7 7 4 15 -7 18 -15 16 81 21 44 2 107 11 140 19 88 23 214 87
272 139 l51 46 183 0 c201 0 243 7 283 46 22 23 26 36 26 83 0 48 -4 62 -31
94 -31 38 -49 47 -49 25 0 -10 -160 -13 -768 -13 -695 0 -776 -2 -860 -18
-129 -25 -269 -77 -339 -126 -53 -37 -65 -52 -107 -136 -39 -79 -56 -102 -99
-134 -67 -49 -124 -67 -217 -70 -171 -4 -294 74 -355 224 -12 31 -35 70 -51
86 -71 74 -297 149 -509 169 -63 6 -404 10 -805 10 -592 -1 -695 1 -700 13 -4
11 -14 5 -37 -22z m1356 -456 c-9 -8 -110 -11 -115 -3 -3 4 23 8 57 8 34 0 60
-2 58 -5z m136 -5 c-3 -5 2 -10 12 -10 15 0 16 -2 3 -10 -17 -11 -36 3 -26 19
4 6 9 11 12 11 3 0 2 -4 -1 -10z m2005 -10 c0 -5 -2 -10 -4 -10 -3 0 -8 5 -11
10 -3 6 -1 10 4 10 6 0 11 -4 11 -10z m70 6 c0 -3 -4 -8 -10 -11 -5 -3 -10 -1
-10 4 0 6 5 11 10 11 6 0 10 -2 10 -4z m-1913 -38 c-3 -8 -6 -5 -6 6 -1 11 2
17 5 13 3 -3 4 -12 1 -19z m1738 12 c3 -6 -1 -7 -9 -4 -18 7 -21 14 -7 14 6 0
13 -4 16 -10z m-535 -148 c0 -5 -7 -9 -15 -9 -8 0 -15 4 -15 9 0 4 7 8 15 8 8
0 15 -4 15 -8z m-60 -42 c0 -5 -2 -10 -4 -10 -3 0 -8 5 -11 10 -3 6 -1 10 4
10 6 0 11 -4 11 -10z m-570 -51 c10 -6 5 -7 -15 -3 -16 4 -34 11 -40 16 -11
12 31 1 55 -13z m320 -43 c0 -3 -4 -8 -10 -11 -5 -3 -10 -1 -10 4 0 6 5 11 10
11 6 0 10 -2 10 -4z"/>
<path d="M4158 363 c7 -3 16 -2 19 1 4 3 -2 6 -13 5 -11 0 -14 -3 -6 -6z"/>
<path d="M1217 323 c3 -7 9 -10 14 -7 14 8 11 21 -5 21 -8 0 -12 -6 -9 -14z"/>
<path d="M3815 330 c3 -5 8 -10 11 -10 2 0 4 5 4 10 0 6 -5 10 -11 10 -5 0 -7
-4 -4 -10z"/>
<path d="M3850 319 c0 -5 5 -7 10 -4 6 3 10 8 10 11 0 2 -4 4 -10 4 -5 0 -10
-5 -10 -11z"/>
<path d="M1410 300 c8 -5 20 -10 25 -10 6 0 3 5 -5 10 -8 5 -19 10 -25 10 -5
0 -3 -5 5 -10z"/>
<path d="M3538 293 c7 -3 16 -2 19 1 4 3 -2 6 -13 5 -11 0 -14 -3 -6 -6z"/>
<path d="M1965 230 c-3 -5 1 -10 9 -10 9 0 16 5 16 10 0 6 -4 10 -9 10 -6 0
-13 -4 -16 -10z"/>
</g>
</svg>
